<svg width="570" height="461" viewBox="0 0 570 461" fill="none" xmlns="http://www.w3.org/2000/svg">
<path d="M385.122 210.079C381.416 208.385 376.711 209.44 374.615 212.437C372.519 215.435 373.824 219.249 377.536 220.943C383.229 223.565 386.704 226.491 389 229.513C379.493 232.214 371.065 233.325 363.619 233.325C352.721 233.317 343.807 230.991 336.29 227.426C328.793 223.853 322.73 218.969 318.133 213.9C310.556 205.547 300.698 198.106 289.079 192.677C277.476 187.265 264.054 183.883 249.648 183.883C237.015 183.876 223.703 186.506 210.513 192.365C205.12 194.755 200.445 197.553 196.374 200.606C180.327 205.602 166.5 207.4 154.803 207.4C138.138 207.4 125.689 203.779 117.367 200.222C113.211 198.447 110.102 196.68 108.091 195.402C107.082 194.755 106.347 194.242 105.891 193.907L105.417 193.539L105.342 193.483H105.339C102.383 191.029 97.5201 190.966 94.4608 193.347C91.397 195.737 91.3079 199.686 94.2637 202.164C94.6934 202.516 99.996 206.904 110.147 211.253C114.59 213.156 120.036 215.026 126.327 216.553C124.656 218.455 122.374 221.237 119.888 224.778C115.109 231.597 109.618 241.166 106.82 252.453C105.985 255.826 108.694 259.113 112.87 259.792C117.046 260.462 121.113 258.272 121.943 254.892C124.29 245.387 129.084 236.938 133.304 230.934C135.409 227.928 137.362 225.538 138.766 223.931C139.467 223.124 140.031 222.508 140.407 222.108C140.594 221.916 140.738 221.764 140.822 221.676L140.911 221.588L140.921 221.58L140.926 221.572C141.637 220.869 142.113 220.077 142.383 219.246C146.307 219.637 150.429 219.877 154.803 219.869C162.912 219.877 171.793 219.102 181.356 217.344C176.615 225.609 174.665 234.235 174.659 242.14C174.678 250.102 176.552 257.329 179.893 263.084C181.715 266.202 186.316 267.529 190.166 266.058C194.016 264.587 195.661 260.862 193.838 257.753V257.745C191.694 254.132 190.062 248.44 190.087 242.14C190.082 235.346 191.895 227.864 196.245 221.037C200.618 214.21 207.409 207.983 217.93 203.298C229.034 198.382 239.635 196.367 249.648 196.36C261.048 196.36 271.788 199.022 281.374 203.482C290.952 207.951 299.319 214.242 305.693 221.276C311.301 227.463 318.805 233.57 328.461 238.175C338.098 242.78 349.93 245.808 363.619 245.8C372.676 245.8 382.517 244.473 393.083 241.563L393.107 242.011C393.107 245.065 392.52 247.846 391.932 249.812C391.64 250.796 391.348 251.572 391.146 252.075C391.042 252.323 390.963 252.506 390.914 252.61L390.87 252.706L390.865 252.722H390.87C389.308 255.912 391.23 259.525 395.174 260.804C399.127 262.083 403.619 260.524 405.201 257.326C405.398 256.879 408.503 250.652 408.532 242.01C408.532 237.053 407.459 231.234 403.896 225.488C400.358 219.744 394.25 214.228 385.122 210.079Z" fill="white"/>
<path d="M402.32 168.423C381.12 168.423 364.094 162.108 352.318 153.843C346.442 149.718 341.924 145.105 338.955 140.693C335.97 136.272 334.601 132.067 334.621 128.918C334.621 125.472 331.167 122.683 326.907 122.683C322.648 122.683 319.197 125.472 319.197 128.918C319.217 134.785 321.484 140.797 325.409 146.648C329.516 152.74 335.515 158.655 343.141 163.867C341.604 165.594 339.483 167.817 336.775 170.198C330.899 175.386 322.43 181.133 312.318 184.035C308.305 185.194 306.215 188.768 307.649 192.005C309.081 195.251 313.496 196.946 317.503 195.785C331.227 191.797 341.5 184.523 348.469 178.335C351.573 175.569 353.989 173.043 355.773 171.021C368.534 176.976 384.294 180.909 402.322 180.901C406.577 180.901 410.037 178.112 410.037 174.666C410.034 171.222 406.575 168.423 402.32 168.423Z" fill="white"/>
<path d="M350.903 290.409C336.474 290.409 325.008 288.155 315.796 284.71C302.008 279.53 293.062 271.569 287.434 263.63C284.627 259.673 282.69 255.733 281.469 252.271C280.243 248.826 279.763 245.804 279.773 243.973C279.773 240.529 276.324 237.737 272.064 237.737C267.799 237.737 264.35 240.528 264.35 243.973C264.35 246.22 264.68 248.706 265.358 251.439C266.534 256.203 268.773 261.712 272.401 267.387C277.843 275.893 286.481 284.813 299.389 291.593C302.621 293.303 306.12 294.854 309.885 296.245C310.473 298.291 311.289 301.936 311.283 306.333C311.283 309.531 310.858 313.095 309.663 316.749C308.467 320.402 306.52 324.128 303.426 327.748C301 330.586 301.874 334.471 305.379 336.43C308.883 338.388 313.686 337.685 316.108 334.855C320.319 329.931 322.986 324.815 324.578 319.938C326.175 315.055 326.708 310.411 326.708 306.333C326.708 304.294 326.57 302.408 326.362 300.682C333.795 302.081 341.939 302.896 350.903 302.888C355.159 302.888 358.613 300.09 358.613 296.644C358.613 293.207 355.159 290.409 350.903 290.409Z" fill="white"/>
<path d="M455.668 196.707C451.849 194.045 447.727 191.862 443.378 190.311C439.034 188.761 434.442 187.833 429.742 187.833C425.483 187.833 422.028 190.623 422.028 194.068C422.028 197.522 425.483 200.312 429.742 200.312C432.579 200.304 436.167 201.103 439.938 202.87C445.591 205.492 451.468 210.2 455.742 216.099C460.041 221.99 462.764 229.002 462.76 236.244C462.725 244.214 459.621 252.527 451.221 260.794C448.508 263.455 448.972 267.38 452.258 269.578C455.54 271.769 460.403 271.393 463.116 268.739C473.701 258.409 478.218 246.955 478.183 236.244C478.183 229.736 476.572 223.51 473.865 217.834C469.791 209.327 463.303 202.046 455.668 196.707Z" fill="white"/>
<path d="M187.113 163.452V163.443C192.411 158.367 199.958 154.386 208.561 151.709C217.15 149.023 226.738 147.679 235.707 147.687C244.444 147.671 252.579 148.974 258.545 151.221C262.415 152.659 266.995 151.301 268.785 148.167C270.569 145.041 268.879 141.341 265.014 139.893C256.396 136.687 246.27 135.216 235.708 135.209C224.866 135.209 213.553 136.792 203.017 140.06C192.506 143.338 182.716 148.343 175.338 155.385C172.585 158.015 172.991 161.955 176.242 164.178C179.492 166.409 184.36 166.073 187.113 163.452Z" fill="white"/>
<path d="M536.192 145.426L536.198 145.435L536.192 145.426Z" fill="white"/>
<path d="M374.24 353.681V353.69H374.234L374.24 353.681Z" fill="white"/>
<path d="M547.974 187.657C546.61 186.538 545.147 185.474 543.665 184.428C544.44 180.934 544.89 177.377 544.89 173.764C544.894 164.187 542.073 154.435 536.197 145.434C529.481 135.114 519.533 126.927 507.919 121.38C499.795 117.495 490.86 114.905 481.599 113.698C479.351 107.231 475.826 101.075 471.092 95.4882C463.21 86.1836 452.001 78.478 438.287 73.7051C428.477 70.2917 418.183 68.653 408.072 68.653C408.072 68.653 407.76 68.6449 407.193 68.6854C394.353 68.806 381.855 71.5315 370.799 76.5116C366.475 72.2987 361.475 68.5494 355.909 65.3918C343.712 58.4615 328.798 54.3521 312.84 54.2242C312.656 54.2161 312.435 54.2089 312.163 54.2008C312.128 54.2008 312.094 54.2008 312.055 54.2008H312.045H312.035H312.03C312.006 54.2008 311.981 54.2008 311.957 54.2008C311.809 54.2008 311.631 54.2089 311.404 54.2161C297.508 54.3044 284.377 57.4062 273.158 62.777C268.295 65.0955 263.858 67.8849 259.785 70.9868C248.163 65.127 234.428 61.7056 219.8 61.6497L219.746 61.6425H219.4C219.39 61.6425 219.384 61.6425 219.375 61.6425C219.355 61.6425 219.335 61.6425 219.312 61.6425C219.134 61.6425 218.911 61.6497 218.63 61.6659C203.067 61.7857 188.473 65.6871 176.441 72.3059C169.467 76.1352 163.364 80.8758 158.317 86.3024C151.933 84.9041 145.267 84.1451 138.455 84.1451C132.788 84.1451 127.04 84.6646 121.318 85.7199C104.465 88.8451 90.07 96.3193 79.7544 106.304H79.7599C72.5203 113.298 67.2967 121.547 64.43 130.445C53.4386 133.46 43.0806 138.512 34.4171 145.649C34.4126 145.657 34.4026 145.665 34.3926 145.673C19.8632 157.656 12.5489 173.332 12.5545 188.896V188.919V188.951C12.5545 188.951 12.5545 188.967 12.5545 188.983V189.15H12.5589C12.5779 194.562 13.483 199.958 15.2475 205.202C5.34264 215.923 0.00557145 228.944 5.0488e-06 242.271C-0.00444808 252.135 2.93684 262.167 9.04876 271.416C15.9177 281.8 26.0196 290.025 37.7714 295.596C46.0141 299.505 55.0629 302.088 64.4367 303.303C69.4287 314.151 77.9876 323.511 88.9389 330.442C101.965 338.7 118.399 343.584 136.006 343.584C137.835 343.584 139.659 343.537 141.481 343.424H141.526H141.55H141.556H141.56C149.333 342.969 156.781 341.554 163.719 339.372C168.33 345.35 174.126 350.634 180.858 354.992C193.88 363.425 210.44 368.461 228.191 368.525C228.256 368.534 228.309 368.533 228.365 368.533C228.425 368.533 228.483 368.533 228.539 368.533H228.549C228.554 368.533 228.554 368.533 228.554 368.533H228.569H228.648C228.674 368.533 228.684 368.533 228.708 368.533L228.901 368.525H228.955C230.374 368.517 231.797 368.47 233.215 368.398H233.235L234.07 368.381C240.424 368.005 246.563 367.006 252.38 365.456C259.708 374.257 269.914 381.683 282.541 386.608H282.535C293.189 390.764 304.556 392.755 315.711 392.755C326.572 392.755 337.197 390.845 346.943 387.311C361.106 399.477 381.077 406.784 402.559 406.801C407.269 406.801 412.033 406.449 416.798 405.721C435.098 402.94 450.779 395.018 461.75 384.202H461.746C468.911 377.16 474.066 368.847 476.824 359.877C489.48 358.871 502.038 355.305 513.137 348.99C523.699 342.994 531.882 335.16 537.367 326.415C542.854 317.678 545.68 308.036 545.68 298.308C545.68 291.826 544.376 285.318 541.811 279.043C548.398 274.703 554.224 269.41 558.869 263.216C566.382 253.223 569.999 242.08 569.999 231.128C569.996 215.116 562.321 199.408 547.974 187.657ZM535.797 251.879C528.043 262.206 515.544 268.634 501.889 270.545C497.689 271.128 494.872 274.358 495.593 277.746C496.314 281.144 500.303 283.422 504.499 282.839C507.637 282.408 510.727 281.775 513.756 280.977C517.056 286.493 518.683 292.408 518.683 298.308C518.688 304.615 516.845 310.881 513.297 316.533C509.744 322.186 504.505 327.213 497.626 331.13C488.963 336.038 479.128 338.381 469.328 338.388C468.562 338.388 467.796 338.341 467.03 338.309C466.868 337.27 466.709 336.239 466.472 335.207V335.199C464.782 327.965 461.303 321.346 456.523 315.599L455.94 314.895L455.149 314.343C449.302 310.298 441.549 303.647 435.564 296.869C432.564 293.487 429.999 290.065 428.275 287.02C426.529 283.974 425.73 281.312 425.759 279.738C425.759 279.035 425.888 278.563 426.032 278.243C426.184 277.932 426.328 277.747 426.629 277.492C429.639 275.062 429.639 271.105 426.629 268.675C423.615 266.237 418.732 266.237 415.721 268.675V268.668C413.845 270.186 412.426 272.016 411.556 273.935C410.686 275.854 410.335 277.828 410.335 279.739C410.364 284.063 411.981 288.156 414.254 292.216C417.7 298.276 422.839 304.295 428.388 309.787C433.612 314.951 439.172 319.579 444.148 323.129C447.572 327.397 450.074 332.21 451.31 337.51C451.829 339.74 452.115 341.954 452.155 344.088L452.159 344.12C452.165 344.408 452.169 344.688 452.169 344.976C452.169 354.409 448.022 363.321 440.892 370.348C433.75 377.367 423.703 382.451 411.808 384.265C408.696 384.738 405.606 384.969 402.567 384.969C386.21 384.977 371.077 378.342 361.985 367.758C366.877 363.745 371.048 359.029 374.24 353.69C378.198 347.071 380.273 340.068 380.654 333.145C380.842 329.692 377.542 326.782 373.291 326.63C369.032 326.479 365.428 329.148 365.24 332.586C364.948 337.886 363.377 343.194 360.348 348.253L360.344 348.269C357.111 353.689 352.584 358.221 347.202 361.811L347.173 361.827C338.333 367.694 327.143 370.924 315.713 370.924C308.508 370.924 301.208 369.645 294.265 366.943C281.405 361.922 272.476 353.049 268.527 342.85L268.521 342.842C267.014 338.972 266.233 334.919 266.233 330.835C266.233 325.008 267.815 319.108 271.17 313.465C273.023 310.363 271.408 306.638 267.572 305.143C263.737 303.649 259.126 304.952 257.278 308.053C252.899 315.392 250.809 323.185 250.809 330.836C250.809 334.545 251.333 338.215 252.282 341.812C246.258 344.473 239.462 346.168 232.118 346.609H232.104C230.908 346.673 229.721 346.704 228.556 346.704C216.976 346.704 206.248 343.459 197.718 337.944C190.294 333.146 184.607 326.648 181.567 319.125C186.998 314.793 191.496 309.725 194.782 304.105C196.6 300.995 194.954 297.27 191.105 295.799C187.255 294.328 182.654 295.655 180.835 298.773C177.781 304.001 173.353 308.638 167.902 312.355C160.182 317.622 150.432 321.02 139.575 321.651H139.56C138.369 321.715 137.183 321.755 136.012 321.755C111.52 321.763 90.6155 307.15 87.0864 287.566L87.0775 287.517L87.0675 287.469C86.8794 286.542 86.7458 285.566 86.6567 284.559C86.5732 283.583 86.5298 282.625 86.5298 281.666C86.5298 279.139 86.8215 276.669 87.3737 274.264C88.1452 270.874 85.3776 267.62 81.1872 266.988C77.0012 266.364 72.9789 268.604 72.203 271.993C71.486 275.126 71.1053 278.364 71.1053 281.666L71.1209 282.025C64.1873 281.401 57.4564 279.619 51.4269 276.758C43.821 273.152 37.3328 267.884 32.8552 261.121C28.8718 255.094 26.9993 248.651 26.9937 242.28C26.9937 234.062 30.1477 225.989 35.9835 219.242C38.2167 221.8 40.7628 224.231 43.6139 226.492C50.1132 231.657 57.6535 235.486 65.6457 237.98C69.6146 239.228 74.0822 237.628 75.6185 234.415C77.156 231.201 75.1799 227.588 71.211 226.348C65.1125 224.438 59.3902 221.537 54.4228 217.588L54.4127 217.58C50.0442 214.118 46.6487 210.17 44.2017 205.941C41.1035 200.585 39.5471 194.773 39.5471 188.954C39.5515 178.826 44.2318 168.762 53.6757 160.952C61.7058 154.341 71.8133 150.471 82.3183 149.313H82.3283H82.3383L82.3672 149.305C84.5871 149.065 86.8204 148.937 89.0636 148.945C101.582 148.953 114.05 152.743 123.702 160.377C126.746 162.783 131.629 162.743 134.609 160.281C137.589 157.82 137.535 153.87 134.491 151.464C122.209 141.735 106.283 136.763 90.3294 136.515C92.1485 130.544 95.6175 124.997 100.46 120.32C107.161 113.845 116.379 109.049 127.354 107.002C131.081 106.315 134.797 105.98 138.453 105.98C144.917 105.98 151.199 107.019 157.005 108.921C155.354 113.565 154.446 118.466 154.446 123.525C154.446 126.97 157.9 129.761 162.159 129.761C166.419 129.761 169.869 126.971 169.869 123.525C169.869 118.066 171.228 112.854 173.655 108.122C177.38 100.895 183.677 94.7238 191.599 90.3668C199.537 86.0107 209.06 83.4842 219.388 83.4761C234.248 83.4842 247.522 88.7443 256.62 97.1296L256.636 97.1377C264.285 104.18 268.896 113.389 268.902 123.525C268.902 126.969 272.351 129.76 276.616 129.76C280.876 129.76 284.325 126.97 284.325 123.525C284.331 112.006 279.724 101.31 271.921 92.652C275.915 88.1761 281.004 84.3864 286.895 81.5727C294.268 78.0477 302.828 76.0335 312.039 76.0335C322.62 76.0335 332.356 78.7031 340.397 83.2681C348.437 87.8241 354.734 94.2754 358.286 101.797L358.282 101.79C360.378 106.242 361.529 111.031 361.534 116.083C361.534 119.528 364.984 122.319 369.244 122.319C373.504 122.319 376.958 119.529 376.958 116.083C376.958 110.934 376.004 105.962 374.294 101.262C383.426 94.3798 395.549 90.4866 408.058 90.4866C414.59 90.4866 421.213 91.5418 427.618 93.764C436.549 96.8739 443.719 101.822 448.834 107.849C453.944 113.868 456.959 120.958 457.468 128.28C457.517 129.032 457.547 129.791 457.547 130.55C457.542 135.834 456.252 141.183 453.505 146.363C451.824 149.529 453.629 153.197 457.542 154.556C461.456 155.922 465.992 154.452 467.673 151.286C470.534 145.915 472.179 140.343 472.737 134.796C480.298 135.204 487.663 137.057 494.186 140.176C501.632 143.741 507.968 148.936 512.312 155.604V155.611C516.113 161.431 517.892 167.634 517.896 173.765C517.896 176.579 517.495 179.361 516.76 182.087C512.104 180.632 507.324 179.632 502.506 179.081C498.29 178.601 494.393 180.977 493.799 184.397C493.206 187.803 496.142 190.96 500.362 191.44C505.2 191.992 509.97 193.119 514.545 194.862C515.356 195.925 516.551 196.812 518.079 197.34C519.033 197.667 520.021 197.828 521 197.835C523.846 199.37 526.436 201.089 528.748 202.991L528.645 202.904L528.769 203.007C538.004 210.554 543.005 220.746 543.001 231.129C543.002 238.217 540.69 245.373 535.797 251.879Z" fill="white"/>
</svg>
