<svg width="407" height="484" viewBox="0 0 407 484" fill="none" xmlns="http://www.w3.org/2000/svg">
<g clip-path="url(#clip0_2010_26)">
<path d="M107.969 400.268H302.031C309.438 400.268 315.445 394.237 315.445 386.802V272.16C315.445 264.733 309.438 258.701 302.031 258.701H107.969C100.562 258.701 94.5625 264.733 94.5625 272.16V386.802C94.5625 394.237 100.562 400.268 107.969 400.268ZM115.062 276.788H294.938V379.014H115.062V276.788Z" fill="white"/>
<path d="M331.016 437.848L307.094 416.53C305.555 415.166 303.344 414.389 301.008 414.389H108.992C106.656 414.389 104.445 415.166 102.906 416.53L78.9845 437.848C77.703 438.985 77 440.452 77 441.966V449.393C77 451.127 78.8045 452.522 81.0315 452.522H328.969C331.203 452.522 333 451.127 333 449.393V441.966C333 440.452 332.297 438.985 331.016 437.848ZM177.571 440.366L184.493 430.97H228.359L235.273 440.366H177.571Z" fill="white"/>
</g>
<path d="M368.898 0H217.109C210.387 0 204.905 5.83447 204.905 12.9536V229.046C204.905 236.166 210.388 242 217.109 242H368.898C375.605 242 381.095 236.166 381.095 229.046V12.9536C381.095 5.83447 375.605 0 368.898 0ZM293.007 11.9492C294.816 11.9492 296.298 13.5151 296.298 15.4497C296.298 17.3843 294.816 18.9502 293.007 18.9502C291.184 18.9502 289.702 17.3843 289.702 15.4497C289.702 13.5151 291.184 11.9492 293.007 11.9492ZM293.007 234.253C289.876 234.253 287.343 231.557 287.343 228.241C287.343 224.925 289.876 222.237 293.007 222.237C296.124 222.237 298.657 224.925 298.657 228.241C298.657 231.557 296.124 234.253 293.007 234.253ZM368.898 214.482L217.109 214.468V27.5176H368.898L368.898 214.482Z" fill="white"/>
<g clip-path="url(#clip1_2010_26)">
<path d="M167.241 16H45.7592C40.4509 16 36.1468 20.2637 36.1468 25.523V217.477C36.1468 222.737 40.4509 227 45.7592 227H167.241C172.55 227 176.853 222.737 176.853 217.477V25.523C176.853 20.2637 172.55 16 167.241 16ZM106.5 213.862C98.0149 213.862 91.1357 207.049 91.1357 198.642C91.1357 190.237 98.0145 183.423 106.5 183.423C114.985 183.423 121.864 190.237 121.864 198.642C121.864 207.049 114.985 213.862 106.5 213.862ZM163.324 173.412H49.6764V41.381H163.324V173.412Z" fill="white"/>
</g>
<defs>
<clipPath id="clip0_2010_26">
<rect width="256" height="257" fill="white" transform="translate(77 227)"/>
</clipPath>
<clipPath id="clip1_2010_26">
<rect width="213" height="211" fill="white" transform="translate(0 16)"/>
</clipPath>
</defs>
</svg>
