<svg width="125" height="125" viewBox="0 0 125 125" fill="none" xmlns="http://www.w3.org/2000/svg">
<path d="M43.75 6.25C43.75 7.9076 43.0915 9.49732 41.9194 10.6694C40.7473 11.8415 39.1576 12.5 37.5 12.5H18.75C17.0924 12.5 15.5027 13.1585 14.3306 14.3306C13.1585 15.5027 12.5 17.0924 12.5 18.75V37.5C12.5 39.1576 11.8415 40.7473 10.6694 41.9194C9.49732 43.0915 7.9076 43.75 6.25 43.75C4.5924 43.75 3.00268 43.0915 1.83058 41.9194C0.65848 40.7473 0 39.1576 0 37.5V18.75C0 13.7772 1.97544 9.00806 5.49175 5.49175C9.00806 1.97544 13.7772 0 18.75 0H37.5C39.1576 0 40.7473 0.65848 41.9194 1.83058C43.0915 3.00268 43.75 4.5924 43.75 6.25ZM0 106.25C0 111.223 1.97544 115.992 5.49175 119.508C9.00806 123.025 13.7772 125 18.75 125H37.5C39.1576 125 40.7473 124.342 41.9194 123.169C43.0915 121.997 43.75 120.408 43.75 118.75C43.75 117.092 43.0915 115.503 41.9194 114.331C40.7473 113.158 39.1576 112.5 37.5 112.5H18.75C17.0924 112.5 15.5027 111.842 14.3306 110.669C13.1585 109.497 12.5 107.908 12.5 106.25V87.5C12.5 85.8424 11.8415 84.2527 10.6694 83.0806C9.49732 81.9085 7.9076 81.25 6.25 81.25C4.5924 81.25 3.00268 81.9085 1.83058 83.0806C0.65848 84.2527 0 85.8424 0 87.5V106.25ZM118.75 81.25C117.092 81.25 115.503 81.9085 114.331 83.0806C113.158 84.2527 112.5 85.8424 112.5 87.5V106.25C112.5 107.908 111.842 109.497 110.669 110.669C109.497 111.842 107.908 112.5 106.25 112.5H87.5C85.8424 112.5 84.2527 113.158 83.0806 114.331C81.9085 115.503 81.25 117.092 81.25 118.75C81.25 120.408 81.9085 121.997 83.0806 123.169C84.2527 124.342 85.8424 125 87.5 125H106.25C111.223 125 115.992 123.025 119.508 119.508C123.025 115.992 125 111.223 125 106.25V87.5C125 85.8424 124.342 84.2527 123.169 83.0806C121.997 81.9085 120.408 81.25 118.75 81.25ZM106.25 0H87.5C85.8424 0 84.2527 0.65848 83.0806 1.83058C81.9085 3.00268 81.25 4.5924 81.25 6.25C81.25 7.9076 81.9085 9.49732 83.0806 10.6694C84.2527 11.8415 85.8424 12.5 87.5 12.5H106.25C107.908 12.5 109.497 13.1585 110.669 14.3306C111.842 15.5027 112.5 17.0924 112.5 18.75V37.5C112.5 39.1576 113.158 40.7473 114.331 41.9194C115.503 43.0915 117.092 43.75 118.75 43.75C120.408 43.75 121.997 43.0915 123.169 41.9194C124.342 40.7473 125 39.1576 125 37.5V18.75C125 13.7772 123.025 9.00806 119.508 5.49175C115.992 1.97544 111.223 0 106.25 0ZM37.5 43.75V37.5C37.5 35.8424 36.8415 34.2527 35.6694 33.0806C34.4973 31.9085 32.9076 31.25 31.25 31.25C29.5924 31.25 28.0027 31.9085 26.8306 33.0806C25.6585 34.2527 25 35.8424 25 37.5V43.75C25 45.4076 25.6585 46.9973 26.8306 48.1694C28.0027 49.3415 29.5924 50 31.25 50C32.9076 50 34.4973 49.3415 35.6694 48.1694C36.8415 46.9973 37.5 45.4076 37.5 43.75ZM100 43.75V37.5C100 35.8424 99.3415 34.2527 98.1694 33.0806C96.9973 31.9085 95.4076 31.25 93.75 31.25C92.0924 31.25 90.5027 31.9085 89.3306 33.0806C88.1585 34.2527 87.5 35.8424 87.5 37.5V43.75C87.5 45.4076 88.1585 46.9973 89.3306 48.1694C90.5027 49.3415 92.0924 50 93.75 50C95.4076 50 96.9973 49.3415 98.1694 48.1694C99.3415 46.9973 100 45.4076 100 43.75ZM42.3437 77.3C41.2961 76.0154 39.7811 75.1995 38.132 75.0319C36.4828 74.8643 34.8346 75.3586 33.55 76.4062C32.2654 77.4539 31.4495 78.9689 31.2819 80.618C31.1143 82.2672 31.6086 83.9154 32.6562 85.2C36.1549 89.7982 40.6687 93.5259 45.8455 96.0919C51.0223 98.658 56.7221 99.9932 62.5 99.9932C68.2779 99.9932 73.9777 98.658 79.1545 96.0919C84.3313 93.5259 88.8451 89.7982 92.3438 85.2C93.3914 83.9154 93.8857 82.2672 93.7181 80.618C93.5505 78.9689 92.7346 77.4539 91.45 76.4062C90.1654 75.3586 88.5172 74.8643 86.868 75.0319C85.2189 75.1995 83.7039 76.0154 82.6562 77.3C80.3341 80.4649 77.2992 83.0385 73.7975 84.8124C70.2957 86.5863 66.4254 87.5106 62.5 87.5106C58.5746 87.5106 54.7043 86.5863 51.2025 84.8124C47.7008 83.0385 44.6659 80.4649 42.3437 77.3ZM56.25 31.25C54.5924 31.25 53.0027 31.9085 51.8306 33.0806C50.6585 34.2527 50 35.8424 50 37.5V56.3125C50.0165 61.2745 51.9993 66.0276 55.5138 69.5304C59.0283 73.0332 63.788 75 68.75 75C70.4076 74.9917 71.994 74.3253 73.1603 73.1473C74.3265 71.9694 74.977 70.3764 74.9688 68.7188C74.9605 67.0611 74.294 65.4747 73.1161 64.3085C71.9381 63.1422 70.3451 62.4917 68.6875 62.5C67.047 62.4983 65.4741 61.8459 64.3141 60.6859C63.1541 59.5259 62.5017 57.953 62.5 56.3125V37.5C62.5 35.8424 61.8415 34.2527 60.6694 33.0806C59.4973 31.9085 57.9076 31.25 56.25 31.25Z" fill="white"/>
</svg>
