<svg width="110" height="133" viewBox="0 0 110 133" fill="none" xmlns="http://www.w3.org/2000/svg">
<path d="M93.0769 49.875H88.8462V34.0147C88.8462 14.9417 74.8 0 54.8435 0C34.8065 0 21.1538 15.2576 21.1538 34.0147V49.875H16.9231C7.59 49.875 0 57.3313 0 66.5V116.375C0 125.544 7.59 133 16.9231 133H93.0769C102.41 133 110 125.544 110 116.375V66.5C110 57.3313 102.41 49.875 93.0769 49.875ZM29.6154 34.0147C29.6154 19.8461 39.4731 8.3125 54.8435 8.3125C70.0573 8.3125 80.3846 19.6009 80.3846 34.0147V49.875H29.6154V34.0147ZM101.538 116.375C101.538 120.955 97.7392 124.687 93.0769 124.687H16.9231C12.2565 124.687 8.46154 120.955 8.46154 116.375V66.5C8.46154 61.9198 12.2565 58.1875 16.9231 58.1875H93.0769C97.7392 58.1875 101.538 61.9198 101.538 66.5V116.375ZM55 74.8125C50.3292 74.8125 46.5385 78.5323 46.5385 83.125C46.5385 86.1923 48.2519 88.844 50.7692 90.2862V103.906C50.7692 106.2 52.6646 108.062 55 108.062C57.3354 108.062 59.2308 106.2 59.2308 103.906V90.2862C61.7481 88.8482 63.4615 86.1923 63.4615 83.125C63.4615 78.5323 59.675 74.8125 55 74.8125Z" fill="white"/>
</svg>
