<svg width="135" height="141" viewBox="0 0 135 141" fill="none" xmlns="http://www.w3.org/2000/svg">
<g filter="url(#filter0_d_2009_75)">
<g clip-path="url(#clip0_2009_75)">
<path d="M105.812 49.1676H45.5688L43.3834 39.5209C39.6583 25.8344 46.1256 12.1894 60.9292 8.28256C75.5809 4.41725 88.4945 12.6923 92.283 26.6116L94.0759 33.6191C94.6792 35.8385 96.9911 37.1519 99.2439 36.5575C101.497 35.9632 102.83 33.6856 102.227 31.4661L100.434 24.4545C95.4259 6.02987 77.9688 -4.82625 58.7481 0.24853C39.4516 5.34409 30.3095 23.5526 35.237 41.6697L36.933 49.1634H29.875C20.5684 49.1634 13 56.6198 13 65.7884V115.663C13 124.832 20.5684 132.288 29.875 132.288H105.812C115.119 132.288 122.688 124.832 122.688 115.663V65.7884C122.688 56.6198 115.119 49.1634 105.812 49.1634V49.1676ZM114.25 115.672C114.25 120.252 110.462 123.984 105.812 123.984H29.875C25.2217 123.984 21.4375 120.252 21.4375 115.672V65.7967C21.4375 61.2166 25.2217 57.4842 29.875 57.4842H105.812C110.462 57.4842 114.25 61.2166 114.25 65.7967V115.672ZM67.8438 74.1092C63.1863 74.1092 59.4062 77.8291 59.4062 82.4217C59.4062 85.4891 61.1148 88.1407 63.625 89.583V103.203C63.625 105.497 65.515 107.359 67.8438 107.359C70.1725 107.359 72.0625 105.497 72.0625 103.203V89.583C74.5727 88.1449 76.2812 85.4891 76.2812 82.4217C76.2812 77.8291 72.5055 74.1092 67.8438 74.1092Z" fill="white"/>
</g>
</g>
<defs>
<filter id="filter0_d_2009_75" x="-4" y="0" width="143" height="141" filterUnits="userSpaceOnUse" color-interpolation-filters="sRGB">
<feFlood flood-opacity="0" result="BackgroundImageFix"/>
<feColorMatrix in="SourceAlpha" type="matrix" values="0 0 0 0 0 0 0 0 0 0 0 0 0 0 0 0 0 0 127 0" result="hardAlpha"/>
<feOffset dy="4"/>
<feGaussianBlur stdDeviation="2"/>
<feComposite in2="hardAlpha" operator="out"/>
<feColorMatrix type="matrix" values="0 0 0 0 0 0 0 0 0 0 0 0 0 0 0 0 0 0 0.25 0"/>
<feBlend mode="normal" in2="BackgroundImageFix" result="effect1_dropShadow_2009_75"/>
<feBlend mode="normal" in="SourceGraphic" in2="effect1_dropShadow_2009_75" result="shape"/>
</filter>
<clipPath id="clip0_2009_75">
<rect width="135" height="133" fill="white"/>
</clipPath>
</defs>
</svg>
