<svg width="368" height="431" viewBox="0 0 368 431" fill="none" xmlns="http://www.w3.org/2000/svg">
<path d="M95.5 10H202.5M207.484 10.0003L362.484 5.00026M95.8717 10.8345L5.87165 110.834M95.9993 8.47287L100.999 100.473M207.988 10.3915L227.988 100.392M362.932 8.75259L314.932 90.7526M362.999 5.53537L352.999 146.535M5.95823 110.3L36.9582 181.3M5.99534 110.432L31.9953 299.432M36.1637 176.13L69.1637 146.13M98.9203 100.771L69.9203 145.771M100.884 100.18L130.884 136.18M130.326 136.031L227.326 100.031M135.064 136.255L207.064 8.25487M100.174 100.121L207.174 8.12087M95.7817 10.0869L227.782 100.087M10.4448 110.003L100.445 100.003M69.2601 145.939L5.2601 110.939M95.9911 10.5939L69.9911 146.594M36.2841 181.049L130.284 136.049M227.443 100.003L314.443 90.0033M227.218 97.0868L362.218 5.08681M207.799 10.0996L314.799 90.0995M314.914 90.2192L352.914 146.219M314.989 90.6062L304.989 136.606M304.602 136.011L352.602 146.011M304.877 136.171L352.877 191.171M353 146.5V191.5M352.997 191.449L362.997 289.449M362.966 289.682L324.966 386.682M324.671 386.97L217.671 425.97M217 425.5V371.5M217.569 371.005L324.569 386.005M217.348 425.976L79.3481 381.976M31.9315 299.247L79.9315 381.247M79.4639 381.001L217.464 371.001M31.4442 299.003L120.444 289.003M120.698 289.041L171.698 311.041M172.55 311.002L222.55 316.002M222.435 316.004L260.435 311.004M260.276 311.053L294.276 294.053M299.46 294.002L362.46 289.002M120.954 292.709L79.9541 381.709M120.904 292.205L217.904 425.205M125.687 292.036L172.687 311.036M172.895 313.194L217.895 371.194M222.998 321.55L217.998 371.55M259.919 311.772L220.919 371.772M362.746 289.935L217.746 371.935M120.823 289.118L217.823 371.118M79.1993 381.101L172.199 311.101M36.8947 181.193L120.895 289.193M37 186.5V181.5M36.9995 181.521L31.9996 299.521M130.67 136.03L227.67 171.03M228 100.5V171.5M227.293 171.045L304.293 136.045M314.841 90.8659L227.841 171.866M130.857 136.15L232.857 240.15M227.999 171.464L232.999 240.464M232.314 239.036L352.314 191.036M230.1 235.201L304.1 136.201M352.966 146.682L294.966 294.682M232.828 240.123L294.828 294.123M230.997 239.552L222.997 316.552M232.969 240.327L259.969 313.327M232.676 240.032L362.676 289.032M227.579 171.006L352.579 191.006M304.999 136.532L294.999 294.532M227.87 171.836L120.87 289.836M227.965 171.683L172.965 311.683M37.4737 181.001L227.474 171.001M130.999 136.533L120.999 289.533M37.9893 181.397L79.9893 381.397M69.9709 146.332L120.971 289.332M69.4191 146.007L130.419 136.007M227.712 100.047L304.712 136.047M130.986 136.383L172.986 311.383M36.6441 181.021L232.644 240.021M362.887 5.81687L226.887 171.817M362.67 5.97005L100.67 100.97M130.254 136.065L362.254 5.0646M95.9818 10.3662L130.982 136.366M5.27817 110.052L207.278 10.0519M100.5 100H227.5M207.997 10.4414L226.997 171.441M315 90.4831L325 386.483M237.5 239.5C237.5 242.261 235.261 244.5 232.5 244.5C229.739 244.5 227.5 242.261 227.5 239.5C227.5 236.739 229.739 234.5 232.5 234.5C235.261 234.5 237.5 236.739 237.5 239.5ZM309.5 136.5C309.5 139.261 307.261 141.5 304.5 141.5C301.739 141.5 299.5 139.261 299.5 136.5C299.5 133.739 301.739 131.5 304.5 131.5C307.261 131.5 309.5 133.739 309.5 136.5ZM135.5 136.5C135.5 139.261 133.261 141.5 130.5 141.5C127.739 141.5 125.5 139.261 125.5 136.5C125.5 133.739 127.739 131.5 130.5 131.5C133.261 131.5 135.5 133.739 135.5 136.5ZM227.5 316.5C227.5 319.261 225.261 321.5 222.5 321.5C219.739 321.5 217.5 319.261 217.5 316.5C217.5 313.739 219.739 311.5 222.5 311.5C225.261 311.5 227.5 313.739 227.5 316.5ZM319.5 90.5C319.5 93.2614 317.261 95.5 314.5 95.5C311.739 95.5 309.5 93.2614 309.5 90.5C309.5 87.7386 311.739 85.5 314.5 85.5C317.261 85.5 319.5 87.7386 319.5 90.5ZM105.5 100.5C105.5 103.261 103.261 105.5 100.5 105.5C97.7386 105.5 95.5 103.261 95.5 100.5C95.5 97.7386 97.7386 95.5 100.5 95.5C103.261 95.5 105.5 97.7386 105.5 100.5ZM74.5 146.5C74.5 149.261 72.2614 151.5 69.5 151.5C66.7386 151.5 64.5 149.261 64.5 146.5C64.5 143.739 66.7386 141.5 69.5 141.5C72.2614 141.5 74.5 143.739 74.5 146.5ZM357.5 146.5C357.5 149.261 355.261 151.5 352.5 151.5C349.739 151.5 347.5 149.261 347.5 146.5C347.5 143.739 349.739 141.5 352.5 141.5C355.261 141.5 357.5 143.739 357.5 146.5ZM212.5 10.5C212.5 13.2614 210.261 15.5 207.5 15.5C204.739 15.5 202.5 13.2614 202.5 10.5C202.5 7.73858 204.739 5.5 207.5 5.5C210.261 5.5 212.5 7.73858 212.5 10.5ZM367.5 5.5C367.5 8.26142 365.261 10.5 362.5 10.5C359.739 10.5 357.5 8.26142 357.5 5.5C357.5 2.73858 359.739 0.5 362.5 0.5C365.261 0.5 367.5 2.73858 367.5 5.5ZM10.5 110.5C10.5 113.261 8.26142 115.5 5.5 115.5C2.73858 115.5 0.5 113.261 0.5 110.5C0.5 107.739 2.73858 105.5 5.5 105.5C8.26142 105.5 10.5 107.739 10.5 110.5ZM232.5 100.5C232.5 103.261 230.261 105.5 227.5 105.5C224.739 105.5 222.5 103.261 222.5 100.5C222.5 97.7386 224.739 95.5 227.5 95.5C230.261 95.5 232.5 97.7386 232.5 100.5ZM100.5 10.5C100.5 13.2614 98.2614 15.5 95.5 15.5C92.7386 15.5 90.5 13.2614 90.5 10.5C90.5 7.73858 92.7386 5.5 95.5 5.5C98.2614 5.5 100.5 7.73858 100.5 10.5ZM232.5 171.5C232.5 174.261 230.261 176.5 227.5 176.5C224.739 176.5 222.5 174.261 222.5 171.5C222.5 168.739 224.739 166.5 227.5 166.5C230.261 166.5 232.5 168.739 232.5 171.5ZM41.5 181.5C41.5 184.261 39.2614 186.5 36.5 186.5C33.7386 186.5 31.5 184.261 31.5 181.5C31.5 178.739 33.7386 176.5 36.5 176.5C39.2614 176.5 41.5 178.739 41.5 181.5ZM36.5 299.5C36.5 302.261 34.2614 304.5 31.5 304.5C28.7386 304.5 26.5 302.261 26.5 299.5C26.5 296.739 28.7386 294.5 31.5 294.5C34.2614 294.5 36.5 296.739 36.5 299.5ZM84.5 381.5C84.5 384.261 82.2614 386.5 79.5 386.5C76.7386 386.5 74.5 384.261 74.5 381.5C74.5 378.739 76.7386 376.5 79.5 376.5C82.2614 376.5 84.5 378.739 84.5 381.5ZM329.5 386.5C329.5 389.261 327.261 391.5 324.5 391.5C321.739 391.5 319.5 389.261 319.5 386.5C319.5 383.739 321.739 381.5 324.5 381.5C327.261 381.5 329.5 383.739 329.5 386.5ZM357.5 191.5C357.5 194.261 355.261 196.5 352.5 196.5C349.739 196.5 347.5 194.261 347.5 191.5C347.5 188.739 349.739 186.5 352.5 186.5C355.261 186.5 357.5 188.739 357.5 191.5ZM367.5 289.5C367.5 292.261 365.261 294.5 362.5 294.5C359.739 294.5 357.5 292.261 357.5 289.5C357.5 286.739 359.739 284.5 362.5 284.5C365.261 284.5 367.5 286.739 367.5 289.5ZM299.5 294.5C299.5 297.261 297.261 299.5 294.5 299.5C291.739 299.5 289.5 297.261 289.5 294.5C289.5 291.739 291.739 289.5 294.5 289.5C297.261 289.5 299.5 291.739 299.5 294.5ZM177.5 311.5C177.5 314.261 175.261 316.5 172.5 316.5C169.739 316.5 167.5 314.261 167.5 311.5C167.5 308.739 169.739 306.5 172.5 306.5C175.261 306.5 177.5 308.739 177.5 311.5ZM125.5 289.5C125.5 292.261 123.261 294.5 120.5 294.5C117.739 294.5 115.5 292.261 115.5 289.5C115.5 286.739 117.739 284.5 120.5 284.5C123.261 284.5 125.5 286.739 125.5 289.5ZM264.5 311.5C264.5 314.261 262.261 316.5 259.5 316.5C256.739 316.5 254.5 314.261 254.5 311.5C254.5 308.739 256.739 306.5 259.5 306.5C262.261 306.5 264.5 308.739 264.5 311.5ZM222.5 425.5C222.5 428.261 220.261 430.5 217.5 430.5C214.739 430.5 212.5 428.261 212.5 425.5C212.5 422.739 214.739 420.5 217.5 420.5C220.261 420.5 222.5 422.739 222.5 425.5ZM222.5 371.5C222.5 374.261 220.261 376.5 217.5 376.5C214.739 376.5 212.5 374.261 212.5 371.5C212.5 368.739 214.739 366.5 217.5 366.5C220.261 366.5 222.5 368.739 222.5 371.5Z" stroke="white"/>
</svg>
