<svg width="459" height="406" viewBox="0 0 459 406" fill="none" xmlns="http://www.w3.org/2000/svg">
<path d="M82.1489 213.761C-78.4295 334.032 115.915 312.569 155.669 338.326M82.1465 213.761C84.2999 241.216 86.3217 303.26 84.9942 311.853M236.944 274.649C456.024 272.502 489.592 256.762 397.721 394.133M357.98 398.425C227.238 394.132 138.9 432.769 199.854 301.837M202.498 398.425C174.14 381.644 142.511 368.313 115.042 349.772M259.039 213.119C259.966 231.502 260.806 249.803 260.806 268.21M236.849 189.509C255.229 210.859 272.564 224.755 294.144 261.695M22.0932 94.9414C129.14 52.2123 172.207 23.6326 205.009 8.54201C235.516 -5.49243 296.027 69.1594 297.12 98.9214C298.151 126.983 97.5082 220.433 83.053 215.782C66.3354 210.399 48.0124 164.24 39.5784 149.393M37.7022 174.03C32.4883 178.012 26.3785 180.511 20.5877 183.738M5.00085 176.246C10.0817 185.015 14.9247 193.721 18.9622 202.814M294.889 51.1314C299.154 48.6949 303.39 46.1497 307.518 43.4895M306.22 31.2573C310.768 36.438 313.713 42.4582 317.021 48.2817M177.735 99.4059L165.154 89.0774M147.956 130.61C144.375 128.143 137.034 121.642 134.365 119.45M175.692 66.3917C151.025 86.3536 130.635 108.568 112.581 132.391M230.858 128.416C205.581 123.11 184.988 131.2 175.767 153.162M391.61 20.6426C398.461 11.6822 411.885 6.83632 422.259 5.46212C436.333 3.59787 448.234 7.24857 452.311 16.3731C453.717 19.5208 453.147 24.5757 449.926 27.9046C446.957 30.9725 443.008 33.4878 436.525 36.8647C435.316 37.4946 431.188 39.6001 430.8 39.8004C421.98 44.3423 417.632 47.333 415.135 51.1204C412.637 54.9077 412.77 66.6661 430.8 65.6603M421.4 81.4664V83.7158" stroke="white" stroke-width="10" stroke-linecap="round" stroke-linejoin="round"/>
</svg>
