<svg width="702" height="660" viewBox="0 0 702 660" fill="none" xmlns="http://www.w3.org/2000/svg">
<path d="M286.832 135.177C300.5 125.977 316.704 123.352 325.815 133.998C365.66 180.545 237.644 197.8 287.001 138.762M353.969 124.483C378.539 89.3921 436.871 117.424 404.355 148.527C379.47 172.33 345.273 146.436 354.207 125.463M381.834 121.769C382.329 119.571 381.593 117.488 381.472 115.349M303.164 141.803C302.328 138.358 302.03 134.68 301.944 131.877" stroke="white" stroke-width="10" stroke-linecap="round" stroke-linejoin="round"/>
<path d="M286.832 135.177C300.5 125.977 316.704 123.352 325.815 133.998C365.66 180.545 237.644 197.8 287.001 138.762M353.969 124.483C378.539 89.3921 436.871 117.424 404.355 148.527C379.47 172.33 345.273 146.436 354.207 125.463M381.834 121.769C382.329 119.571 381.593 117.488 381.472 115.349M303.164 141.803C302.328 138.358 302.03 134.68 301.944 131.877" stroke="white" stroke-width="10" stroke-linecap="round" stroke-linejoin="round"/>
<path d="M286.832 135.177C300.5 125.977 316.704 123.352 325.815 133.998C365.66 180.545 237.644 197.8 287.001 138.762M353.969 124.483C378.539 89.3921 436.871 117.424 404.355 148.527C379.47 172.33 345.273 146.436 354.207 125.463M381.834 121.769C382.329 119.571 381.593 117.488 381.472 115.349M303.164 141.803C302.328 138.358 302.03 134.68 301.944 131.877" stroke="white" stroke-width="10" stroke-linecap="round" stroke-linejoin="round"/>
<path d="M371.879 85.1577C389.481 80.569 403.25 77.7754 413.877 79.5288C419.42 80.4435 424.225 82.5979 428.286 86.3433C432.278 90.0252 435.278 94.9916 437.69 101.105C442.152 112.413 445.017 128.786 447.841 151.164L448.405 155.719V155.723C448.547 156.895 449.259 159.435 450.458 163.288C451.579 166.892 453.023 171.339 454.293 175.718C455.561 180.09 456.738 184.66 457.314 188.633C457.602 190.618 457.766 192.618 457.666 194.46C457.571 196.213 457.213 198.365 456.006 200.228L456.005 200.23C454.807 202.075 452.827 202.987 451.789 203.421C450.47 203.973 448.92 204.425 447.345 204.808C444.172 205.58 440.244 206.222 436.394 206.766C432.525 207.313 428.56 207.783 425.332 208.184C421.923 208.607 419.649 208.919 418.721 209.144C410.29 211.192 367.325 221.075 326.241 230.2C305.694 234.763 285.584 239.144 270.476 242.264C262.93 243.823 256.591 245.076 252.057 245.879C249.803 246.279 247.922 246.581 246.539 246.751C245.865 246.835 245.189 246.901 244.602 246.918C244.325 246.927 243.907 246.93 243.452 246.876C243.226 246.85 242.855 246.795 242.425 246.662C242.075 246.553 241.194 246.249 240.364 245.452L240.358 245.446C234.62 239.912 230.868 232.181 228.279 223.883C225.675 215.536 224.115 206.18 223.039 196.993C222.755 194.574 222.505 192.148 222.276 189.741C221.604 190.649 220.623 191.335 219.439 191.623L197.723 196.896C197.247 197.012 196.77 197.054 196.304 197.032L196.466 197.693C197.117 200.376 195.47 203.08 192.787 203.732C190.104 204.384 187.4 202.736 186.748 200.053L183.142 185.205C182.491 182.521 184.138 179.817 186.821 179.166C189.504 178.514 192.207 180.161 192.859 182.844L194.041 187.709C194.445 187.476 194.888 187.295 195.364 187.179L217.079 181.906C218.786 181.491 220.501 182.007 221.691 183.128C221.328 178.725 221.015 174.461 220.696 170.495C220.035 162.285 219.354 155.523 218.213 150.822C217.561 148.138 219.208 145.435 221.891 144.784C224.575 144.132 227.278 145.779 227.929 148.462C229.29 154.063 230.014 161.625 230.664 169.693C231.326 177.923 231.923 186.887 232.971 195.829C234.017 204.763 235.489 213.418 237.825 220.905C239.892 227.529 242.537 232.91 245.88 236.75C246.967 236.6 248.449 236.363 250.311 236.033C254.702 235.254 260.93 234.025 268.454 232.471C283.488 229.366 303.539 224.998 324.073 220.438C365.152 211.315 408.035 201.448 416.362 199.426C417.991 199.031 420.979 198.648 424.1 198.26C427.403 197.85 431.236 197.396 434.996 196.865C438.775 196.331 442.306 195.742 444.983 195.091C446.144 194.809 447.028 194.542 447.648 194.307C447.66 194.196 447.672 194.066 447.68 193.918C447.731 192.986 447.655 191.705 447.418 190.07C446.944 186.801 445.926 182.768 444.689 178.504C443.455 174.248 442.082 170.026 440.91 166.259C439.815 162.741 438.754 159.205 438.477 156.926C435.441 132.011 432.602 115.457 428.387 104.776C426.313 99.5177 424.028 96.0209 421.506 93.6948C419.052 91.4322 416.112 90.0335 412.249 89.396C404.062 88.0452 392.368 90.1508 374.401 94.8345C356.884 99.4011 333.694 106.315 304.076 113.507C275.113 120.541 246.577 128.042 219.455 138.644C216.883 139.649 213.984 138.38 212.978 135.808C211.973 133.236 213.243 130.336 215.814 129.331C243.604 118.468 272.696 110.837 301.717 103.79C331.34 96.5956 353.827 89.8636 371.879 85.1577Z" fill="white"/>
<path d="M362.833 180.651C364.556 178.493 367.701 178.14 369.859 179.863C372.017 181.586 372.371 184.732 370.648 186.89C364.705 194.336 357.239 198.928 348.881 200.52C340.577 202.102 331.795 200.651 323.232 196.737C320.721 195.589 319.615 192.621 320.763 190.11C321.912 187.599 324.879 186.493 327.39 187.641C334.474 190.879 341.142 191.814 347.009 190.697C352.821 189.589 358.247 186.396 362.833 180.651Z" fill="white"/>
<path fill-rule="evenodd" clip-rule="evenodd" d="M479.448 111.416C479.794 108.676 482.295 106.735 485.035 107.082C487.774 107.428 489.715 109.93 489.369 112.669C489.073 115.012 488.818 116.958 488.604 118.564C488.952 119.268 489.107 119.9 489.177 120.187C489.336 120.844 489.454 121.593 489.55 122.395C489.742 124.014 489.893 126.297 489.997 129.421C490.089 132.181 487.926 134.493 485.166 134.585C482.406 134.677 480.094 132.514 480.002 129.754C479.991 129.427 479.975 129.113 479.964 128.81C478.763 128.039 478.251 126.969 478.127 126.701C477.872 126.149 477.779 125.679 477.747 125.503C477.705 125.277 477.688 125.092 477.679 124.985C477.663 124.77 477.664 124.6 477.665 124.524C477.667 124.36 477.677 124.228 477.681 124.174C477.718 123.703 477.867 122.789 478.038 121.949C478.299 120.19 478.749 116.946 479.448 111.416ZM479.462 122.558C479.461 122.555 479.46 122.551 479.46 122.548C479.43 122.428 479.426 122.446 479.462 122.558Z" fill="white"/>
<path d="M470.748 117.296C473.431 116.645 476.135 118.292 476.787 120.975C477.439 123.658 475.791 126.362 473.108 127.014C471.518 127.4 469.897 127.729 468.439 128.037C466.939 128.353 465.559 128.656 464.238 129.019C461.611 129.742 459.449 130.644 457.613 132.061C455.427 133.748 452.287 133.345 450.599 131.159C448.912 128.973 449.317 125.832 451.503 124.145C454.763 121.628 458.297 120.282 461.586 119.377C463.222 118.927 464.857 118.572 466.378 118.251C467.94 117.922 469.349 117.636 470.748 117.296Z" fill="white"/>
<path d="M199.889 408.971C196.562 229.744 167.22 261.871 373.208 261.871C390.628 261.871 465.745 253.551 478.703 262.457C481.618 264.459 490.521 406.522 493.069 422.311M273.74 275.332C272.48 289.895 274.368 304.296 275.326 318.702C275.995 328.852 267.946 383.787 273.74 391.991C281.637 403.166 354.817 398.59 367.794 397.767C381.535 396.904 409.849 404.616 413.076 391.991C417.902 373.115 417.902 300.983 417.902 261.87M297.599 399.391C295.059 401.724 309.938 552.701 296.191 562.218C293.554 564.044 275.839 563.124 271.63 563.65M383.288 408.939C389.491 432.028 376.67 548.785 383.294 561.67C385.765 566.478 397.722 565.473 403.682 565.473M316.325 483.661C306.862 485.862 297.527 487.016 287.883 487.016M393.525 481.254C386.934 478.106 381.049 482.399 375.24 482.934M519.48 429.749C502.237 420.913 492.341 421.638 484.943 439.501M184.275 424.22C193.812 412.804 210.037 410.748 218.812 422.857M206.623 348.051C200.668 349.962 194.459 350.665 188.338 351.414M495.101 331.932C488.471 333.666 483.371 334.079 476.816 336.966M344.34 283.015C335.31 284.894 338.039 297.082 333.693 300.595C328.767 304.575 294.935 303.483 313.788 330.141M303.994 320.484C295.109 325.259 290.801 335.904 293.845 344.167C303.392 370.097 348.301 361.296 372.742 358.452C386.194 356.886 388.095 345.641 377.817 340.407M345.294 285.333C356.164 292.285 377.634 297.813 371.315 313.145M335.286 301.943C339.724 314.204 400.232 314.934 381.128 334.39M348.258 328.21C348.51 326.537 348.44 324.82 348.523 323.188M337.43 328.209V322.415M336.243 337.838C374.622 334.215 335.029 359.846 332.903 337.501" stroke="white" stroke-width="12" stroke-linecap="round" stroke-linejoin="round"/>
</svg>
